<mxfile host="app.diagrams.net" modified="2024-01-24T05:01:35.039Z" agent="Mozilla/5.0 (Windows NT 10.0; Win64; x64) AppleWebKit/537.36 (KHTML, like Gecko) Chrome/120.0.0.0 Safari/537.36" etag="BDs34T3T2tKDe_bFMlSe" version="23.0.0" type="github">
  <diagram name="Page-1" id="vlDNYn-P-1VkEB6zAjr5">
    <mxGraphModel dx="454" dy="235" grid="1" gridSize="10" guides="1" tooltips="1" connect="1" arrows="1" fold="1" page="1" pageScale="1" pageWidth="827" pageHeight="1169" math="0" shadow="0">
      <root>
        <mxCell id="0" />
        <mxCell id="1" parent="0" />
        <mxCell id="7lI0hGRPhF14dL43iS4--1" value="Property Details" style="swimlane;childLayout=stackLayout;resizeParent=1;resizeParentMax=0;horizontal=0;startSize=20;horizontalStack=0;html=1;" vertex="1" parent="1">
          <mxGeometry x="100" y="30" width="700" height="380" as="geometry" />
        </mxCell>
        <mxCell id="7lI0hGRPhF14dL43iS4--2" value="Owner" style="swimlane;startSize=20;horizontal=0;html=1;" vertex="1" parent="7lI0hGRPhF14dL43iS4--1">
          <mxGeometry x="20" width="680" height="120" as="geometry">
            <mxRectangle x="20" width="650" height="30" as="alternateBounds" />
          </mxGeometry>
        </mxCell>
        <mxCell id="7lI0hGRPhF14dL43iS4--9" value="" style="edgeStyle=orthogonalEdgeStyle;rounded=0;orthogonalLoop=1;jettySize=auto;html=1;" edge="1" parent="7lI0hGRPhF14dL43iS4--2" source="7lI0hGRPhF14dL43iS4--6" target="7lI0hGRPhF14dL43iS4--8">
          <mxGeometry relative="1" as="geometry" />
        </mxCell>
        <mxCell id="7lI0hGRPhF14dL43iS4--6" value="&lt;font face=&quot;Times New Roman&quot; style=&quot;font-size: 8px;&quot;&gt;START&lt;/font&gt;" style="ellipse;whiteSpace=wrap;html=1;" vertex="1" parent="7lI0hGRPhF14dL43iS4--2">
          <mxGeometry x="280" y="40" width="60" height="40" as="geometry" />
        </mxCell>
        <mxCell id="7lI0hGRPhF14dL43iS4--7" value="&lt;font style=&quot;font-size: 8px;&quot; face=&quot;Times New Roman&quot;&gt;END&lt;/font&gt;" style="ellipse;whiteSpace=wrap;html=1;" vertex="1" parent="7lI0hGRPhF14dL43iS4--2">
          <mxGeometry x="410" y="45" width="60" height="40" as="geometry" />
        </mxCell>
        <mxCell id="7lI0hGRPhF14dL43iS4--8" value="&lt;font face=&quot;Times New Roman&quot; style=&quot;font-size: 8px;&quot;&gt;Creates a property listing / gives the ad for sale or rent&lt;/font&gt;" style="whiteSpace=wrap;html=1;" vertex="1" parent="7lI0hGRPhF14dL43iS4--2">
          <mxGeometry x="130" y="35" width="100" height="50" as="geometry" />
        </mxCell>
        <mxCell id="7lI0hGRPhF14dL43iS4--30" value="" style="edgeStyle=orthogonalEdgeStyle;rounded=0;orthogonalLoop=1;jettySize=auto;html=1;" edge="1" parent="7lI0hGRPhF14dL43iS4--2" source="7lI0hGRPhF14dL43iS4--28" target="7lI0hGRPhF14dL43iS4--7">
          <mxGeometry relative="1" as="geometry" />
        </mxCell>
        <mxCell id="7lI0hGRPhF14dL43iS4--28" value="&lt;font style=&quot;font-size: 8px;&quot; face=&quot;Times New Roman&quot;&gt;Checks for Property Rooms (No of Bedrooms / Bathroom / Kitchen / Balcony etc.)&lt;/font&gt;" style="whiteSpace=wrap;html=1;" vertex="1" parent="7lI0hGRPhF14dL43iS4--2">
          <mxGeometry x="520" y="40" width="100" height="50" as="geometry" />
        </mxCell>
        <mxCell id="7lI0hGRPhF14dL43iS4--13" value="" style="edgeStyle=orthogonalEdgeStyle;rounded=0;orthogonalLoop=1;jettySize=auto;html=1;" edge="1" parent="7lI0hGRPhF14dL43iS4--1" source="7lI0hGRPhF14dL43iS4--8" target="7lI0hGRPhF14dL43iS4--12">
          <mxGeometry relative="1" as="geometry" />
        </mxCell>
        <mxCell id="7lI0hGRPhF14dL43iS4--3" value="Customer" style="swimlane;startSize=20;horizontal=0;html=1;" vertex="1" parent="7lI0hGRPhF14dL43iS4--1">
          <mxGeometry x="20" y="120" width="680" height="260" as="geometry" />
        </mxCell>
        <mxCell id="7lI0hGRPhF14dL43iS4--15" value="" style="edgeStyle=orthogonalEdgeStyle;rounded=0;orthogonalLoop=1;jettySize=auto;html=1;" edge="1" parent="7lI0hGRPhF14dL43iS4--3" source="7lI0hGRPhF14dL43iS4--12" target="7lI0hGRPhF14dL43iS4--14">
          <mxGeometry relative="1" as="geometry" />
        </mxCell>
        <mxCell id="7lI0hGRPhF14dL43iS4--12" value="&lt;font style=&quot;font-size: 8px;&quot; face=&quot;Times New Roman&quot;&gt;Selects either purchase property or rent a property&lt;/font&gt;" style="whiteSpace=wrap;html=1;" vertex="1" parent="7lI0hGRPhF14dL43iS4--3">
          <mxGeometry x="130" y="45" width="100" height="50" as="geometry" />
        </mxCell>
        <mxCell id="7lI0hGRPhF14dL43iS4--17" value="" style="edgeStyle=orthogonalEdgeStyle;rounded=0;orthogonalLoop=1;jettySize=auto;html=1;" edge="1" parent="7lI0hGRPhF14dL43iS4--3" source="7lI0hGRPhF14dL43iS4--14" target="7lI0hGRPhF14dL43iS4--16">
          <mxGeometry relative="1" as="geometry" />
        </mxCell>
        <mxCell id="7lI0hGRPhF14dL43iS4--14" value="&lt;font style=&quot;font-size: 8px;&quot; face=&quot;Times New Roman&quot;&gt;Chooses location of the property&lt;/font&gt;" style="whiteSpace=wrap;html=1;" vertex="1" parent="7lI0hGRPhF14dL43iS4--3">
          <mxGeometry x="130" y="130" width="100" height="50" as="geometry" />
        </mxCell>
        <mxCell id="7lI0hGRPhF14dL43iS4--19" value="" style="edgeStyle=orthogonalEdgeStyle;rounded=0;orthogonalLoop=1;jettySize=auto;html=1;" edge="1" parent="7lI0hGRPhF14dL43iS4--3" source="7lI0hGRPhF14dL43iS4--16" target="7lI0hGRPhF14dL43iS4--18">
          <mxGeometry relative="1" as="geometry" />
        </mxCell>
        <mxCell id="7lI0hGRPhF14dL43iS4--16" value="&lt;font style=&quot;font-size: 8px;&quot; face=&quot;Times New Roman&quot;&gt;Selects Type of property (Furnished or not)&lt;/font&gt;" style="whiteSpace=wrap;html=1;" vertex="1" parent="7lI0hGRPhF14dL43iS4--3">
          <mxGeometry x="260" y="130" width="100" height="50" as="geometry" />
        </mxCell>
        <mxCell id="7lI0hGRPhF14dL43iS4--21" value="" style="edgeStyle=orthogonalEdgeStyle;rounded=0;orthogonalLoop=1;jettySize=auto;html=1;" edge="1" parent="7lI0hGRPhF14dL43iS4--3" source="7lI0hGRPhF14dL43iS4--18" target="7lI0hGRPhF14dL43iS4--20">
          <mxGeometry relative="1" as="geometry" />
        </mxCell>
        <mxCell id="7lI0hGRPhF14dL43iS4--18" value="&lt;font style=&quot;font-size: 8px;&quot; face=&quot;Times New Roman&quot;&gt;Checks availability date of property&lt;/font&gt;" style="whiteSpace=wrap;html=1;" vertex="1" parent="7lI0hGRPhF14dL43iS4--3">
          <mxGeometry x="260" y="45" width="100" height="50" as="geometry" />
        </mxCell>
        <mxCell id="7lI0hGRPhF14dL43iS4--23" value="" style="edgeStyle=orthogonalEdgeStyle;rounded=0;orthogonalLoop=1;jettySize=auto;html=1;" edge="1" parent="7lI0hGRPhF14dL43iS4--3" source="7lI0hGRPhF14dL43iS4--20" target="7lI0hGRPhF14dL43iS4--22">
          <mxGeometry relative="1" as="geometry" />
        </mxCell>
        <mxCell id="7lI0hGRPhF14dL43iS4--20" value="&lt;font style=&quot;font-size: 8px;&quot; face=&quot;Times New Roman&quot;&gt;Checks for floor of the property&lt;/font&gt;" style="whiteSpace=wrap;html=1;" vertex="1" parent="7lI0hGRPhF14dL43iS4--3">
          <mxGeometry x="390" y="45" width="100" height="50" as="geometry" />
        </mxCell>
        <mxCell id="7lI0hGRPhF14dL43iS4--25" value="" style="edgeStyle=orthogonalEdgeStyle;rounded=0;orthogonalLoop=1;jettySize=auto;html=1;" edge="1" parent="7lI0hGRPhF14dL43iS4--3" source="7lI0hGRPhF14dL43iS4--22" target="7lI0hGRPhF14dL43iS4--24">
          <mxGeometry relative="1" as="geometry" />
        </mxCell>
        <mxCell id="7lI0hGRPhF14dL43iS4--22" value="&lt;font style=&quot;font-size: 8px;&quot; face=&quot;Times New Roman&quot;&gt;Checks for the property facing details&lt;/font&gt;" style="whiteSpace=wrap;html=1;" vertex="1" parent="7lI0hGRPhF14dL43iS4--3">
          <mxGeometry x="390" y="130" width="100" height="50" as="geometry" />
        </mxCell>
        <mxCell id="7lI0hGRPhF14dL43iS4--27" value="" style="edgeStyle=orthogonalEdgeStyle;rounded=0;orthogonalLoop=1;jettySize=auto;html=1;" edge="1" parent="7lI0hGRPhF14dL43iS4--3" source="7lI0hGRPhF14dL43iS4--24" target="7lI0hGRPhF14dL43iS4--26">
          <mxGeometry relative="1" as="geometry" />
        </mxCell>
        <mxCell id="7lI0hGRPhF14dL43iS4--24" value="&lt;font style=&quot;font-size: 8px;&quot; face=&quot;Times New Roman&quot;&gt;Checks for Property Rooms (No of Bedrooms / Bathroom / Kitchen / Balcony etc.)&lt;/font&gt;" style="whiteSpace=wrap;html=1;" vertex="1" parent="7lI0hGRPhF14dL43iS4--3">
          <mxGeometry x="520" y="130" width="100" height="50" as="geometry" />
        </mxCell>
        <mxCell id="7lI0hGRPhF14dL43iS4--26" value="&lt;font style=&quot;font-size: 8px;&quot; face=&quot;Times New Roman&quot;&gt;Shares Contact Information (Email id or Phone number) with Owner&lt;/font&gt;" style="whiteSpace=wrap;html=1;" vertex="1" parent="7lI0hGRPhF14dL43iS4--3">
          <mxGeometry x="520" y="45" width="100" height="50" as="geometry" />
        </mxCell>
        <mxCell id="7lI0hGRPhF14dL43iS4--29" value="" style="edgeStyle=orthogonalEdgeStyle;rounded=0;orthogonalLoop=1;jettySize=auto;html=1;" edge="1" parent="7lI0hGRPhF14dL43iS4--1" source="7lI0hGRPhF14dL43iS4--26" target="7lI0hGRPhF14dL43iS4--28">
          <mxGeometry relative="1" as="geometry" />
        </mxCell>
      </root>
    </mxGraphModel>
  </diagram>
</mxfile>
